<svg xmlns="http://www.w3.org/2000/svg" xmlns:xlink="http://www.w3.org/1999/xlink" width="193.451" height="48.547" viewBox="0 0 193.451 48.547">
  <defs>
    <clipPath id="clip-path">
      <rect id="Rectangle_1250" data-name="Rectangle 1250" width="193.451" height="48.547"/>
    </clipPath>
  </defs>
  <g id="Group_2751" data-name="Group 2751" clip-path="url(#clip-path)">
    <path id="Path_7480" data-name="Path 7480" d="M397.719,12.761a54.4,54.4,0,0,0-69.894-.138,1.282,1.282,0,0,0-.142,1.826l3.184,3.656a1.284,1.284,0,0,0,1.791.14,47.059,47.059,0,0,1,55.229-3.522.362.362,0,0,1,.078.543l-1.627,1.867a.36.36,0,0,1-.463.069,43.809,43.809,0,0,0-51.1,3.4,1.28,1.28,0,0,0-.144,1.827l4.029,4.626,2.072,2.38,4.05,4.651a1.282,1.282,0,0,0,1.768.16,25.881,25.881,0,0,1,27.086-3.226.361.361,0,0,1,.116.563l-1.661,1.907a.359.359,0,0,1-.415.093,22.675,22.675,0,0,0-21.089,1.638.03.03,0,0,1,0,.009c-.073.117-.148.25-.223.386L345.441,46.64a1.4,1.4,0,0,0,.431,1.5,1.5,1.5,0,0,0,2.292-.286,63.822,63.822,0,0,1,4.4-4.886,15.3,15.3,0,0,1,19.519-.606,1.277,1.277,0,0,0,1.742-.18l4.037-4.635,2.062-2.368,4.026-4.624a1.285,1.285,0,0,0-.157-1.838,33.3,33.3,0,0,0-37.048-3.487.36.36,0,0,1-.445-.078l-1.632-1.875a.361.361,0,0,1,.093-.552,36.379,36.379,0,0,1,41.168,3.662,1.28,1.28,0,0,0,1.78-.149l4.047-4.647,2.082-2.389,4.02-4.617a1.283,1.283,0,0,0-.138-1.823" transform="translate(-204.722 0.001)"/>
    <path id="Path_7481" data-name="Path 7481" d="M2.558,31.916A10.579,10.579,0,0,1,.705,28.941a9.419,9.419,0,0,1-.6-3.5,9.038,9.038,0,0,1,.7-3.549,9.538,9.538,0,0,1,1.905-2.924,8.5,8.5,0,0,1,2.871-1.957,9.032,9.032,0,0,1,3.548-.705,9.039,9.039,0,0,1,3.549.705,8.512,8.512,0,0,1,2.87,1.957,9.537,9.537,0,0,1,1.9,2.924,9.033,9.033,0,0,1,.705,3.549v1.513a1.046,1.046,0,0,1-.366.835,1.182,1.182,0,0,1-.782.313H12.787a1.142,1.142,0,0,1-.757-.287,1,1,0,0,1-.339-.809,9.39,9.39,0,0,0-.417-3q-.418-1.226-2.14-1.226a2.392,2.392,0,0,0-1.826.783,2.653,2.653,0,0,0-.731,1.878,3.119,3.119,0,0,0,.209,1.122,3.265,3.265,0,0,0,.627,1.017l8.037,9.342a19.412,19.412,0,0,1,1.383,1.721,8.589,8.589,0,0,1,.861,1.514,6.606,6.606,0,0,1,.444,1.514,10.889,10.889,0,0,1,.13,1.775,8.783,8.783,0,0,1-.7,3.444,9.657,9.657,0,0,1-1.931,2.95,9.278,9.278,0,0,1-2.9,2.034,8.632,8.632,0,0,1-3.6.758A8.762,8.762,0,0,1,5.585,51.9a9.41,9.41,0,0,1-2.923-1.983A9.117,9.117,0,0,1,0,43.45V41.78a.932.932,0,0,1,.392-.835,1.317,1.317,0,0,1,.7-.262H5.376a.867.867,0,0,1,.913.861q.13.861.261,1.879a5.035,5.035,0,0,0,.6,1.853,2.08,2.08,0,0,0,1.983.835,2.6,2.6,0,0,0,1.879-.757,2.536,2.536,0,0,0,.783-1.9,2.058,2.058,0,0,0-.366-1.1,12.046,12.046,0,0,0-.834-1.148Z" transform="translate(0 -10.2)"/>
    <path id="Path_7482" data-name="Path 7482" d="M53.007,18.854q0-1.147,1.044-1.148H70.23a.928.928,0,0,1,.783.339,1.381,1.381,0,0,1,.261.861v4.175a1.086,1.086,0,0,1-.314.757,1.02,1.02,0,0,1-.782.34h-10.7v7.881h8.909q1.044,0,1.044,1.1v4.28a1.3,1.3,0,0,1-.234.757.915.915,0,0,1-.81.339H59.479v7.932h10.7a1.04,1.04,0,0,1,1.1,1.149v4.33c0,.663-.348.992-1.044.992H54.051a1.185,1.185,0,0,1-.731-.234.885.885,0,0,1-.313-.758Z" transform="translate(-33.148 -11.073)"/>
    <path id="Path_7483" data-name="Path 7483" d="M106.071,18.751a1.1,1.1,0,0,1,.262-.731.956.956,0,0,1,.782-.313h5.532a.828.828,0,0,1,.887.73l4.592,16.543,4.593-16.543a.821.821,0,0,1,.417-.575,1.3,1.3,0,0,1,.574-.155h5.324a1.292,1.292,0,0,1,.756.286.9.9,0,0,1,.392.758V51.89q0,1.045-1.148,1.043h-4.28a.921.921,0,0,1-1.044-1.043V36.025l-2.766,16.126a1.835,1.835,0,0,1-.287.548.6.6,0,0,1-.5.234h-4.019a.649.649,0,0,1-.547-.234,1.811,1.811,0,0,1-.288-.548l-2.766-16.283V51.89q0,1.045-1.149,1.043h-4.28a.922.922,0,0,1-1.044-1.043Z" transform="translate(-66.332 -11.073)"/>
    <path id="Path_7484" data-name="Path 7484" d="M174.729,18.7a.921.921,0,0,1,.313-.705,1.05,1.05,0,0,1,.731-.286h8.089a9.673,9.673,0,0,1,3.549.652,9.041,9.041,0,0,1,2.922,1.826,8.233,8.233,0,0,1,1.957,2.845,9.574,9.574,0,0,1,.7,3.758v8.4a9.019,9.019,0,0,1-.7,3.548,8.767,8.767,0,0,1-1.957,2.9,9.671,9.671,0,0,1-2.922,1.957,8.747,8.747,0,0,1-3.549.732H181.2v7.41a1.282,1.282,0,0,1-.313.809,1.017,1.017,0,0,1-.835.391h-4.332a.892.892,0,0,1-.678-.365,1.246,1.246,0,0,1-.313-.835Zm6.472,5.48V37.851h2.662a2.675,2.675,0,0,0,2.661-2.661V26.84a2.673,2.673,0,0,0-2.661-2.662Z" transform="translate(-109.268 -11.073)"/>
    <path id="Path_7485" data-name="Path 7485" d="M226.169,48.654l-.626,3.549a.882.882,0,0,1-.887.729h-4.593a1.106,1.106,0,0,1-.678-.234.767.767,0,0,1-.313-.652.109.109,0,0,1,.026-.079.209.209,0,0,0,.026-.13l6.629-33.349q.26-.73.834-.782h5.063a1.111,1.111,0,0,1,.783.782l6.733,33.349c0,.661-.384,1.027-1.148,1.1h-4.384a1.292,1.292,0,0,1-.6-.182.71.71,0,0,1-.392-.547l-.678-3.549-1.148-6.367-1.722-9.237-1.479,7.932-.243,1.306Z" transform="translate(-136.998 -11.073)"/>
  </g>
</svg>
